<svg width="81" height="93" viewBox="0 0 81 93" fill="none" xmlns="http://www.w3.org/2000/svg">
<path d="M78.563 36.2462L43.9979 1.52615C42.9562 0.476923 41.6304 0 40.2099 0C38.8841 0 37.5583 0.572308 36.5166 1.52615L2.04619 36.2462C1.0045 37.2954 0.531006 38.5354 0.531006 39.8708V87.6585C0.531006 90.6154 2.89848 93 5.83415 93H74.8697C77.8054 93 80.1729 90.6154 80.1729 87.6585V39.8708C80.1729 38.44 79.6047 37.1046 78.563 36.2462Z" fill="#EF33B4"/>
<path d="M31.403 42.5415C25.7211 42.5415 21.0808 47.2154 21.0808 52.9384C21.0808 55.8 22.2172 58.4707 24.1112 60.283L40.3047 76.88L56.5929 60.4738C58.4869 58.5661 59.6233 55.9907 59.6233 53.1292C59.6233 47.4061 55.0778 42.7323 49.3011 42.7323C45.4185 42.7323 42.104 44.8307 40.3047 47.9784C38.6001 44.7354 35.2857 42.5415 31.403 42.5415Z" fill="white"/>
</svg>
