<svg width="80" height="80" viewBox="0 0 80 80" fill="none" xmlns="http://www.w3.org/2000/svg">
<path d="M1.51978 55.68C1.51978 66.288 6.95978 73.904 16.4798 73.904C25.4558 73.904 31.9838 66.56 31.9838 57.856C31.9838 49.152 24.6398 42.352 16.2078 42.352C17.5678 31.2 22.7358 21.68 32.2558 14.608V4C10.7678 16.24 1.51978 34.464 1.51978 55.68ZM77.6798 4C56.1918 16.24 46.9438 34.464 46.9438 55.68C46.9438 66.288 52.3838 73.904 61.9038 73.904C70.8798 73.904 77.4078 66.56 77.4078 57.856C77.4078 49.152 70.0638 42.352 61.6318 42.352C62.9918 31.2 68.1598 21.68 77.6798 14.608V4Z" fill="#3B72FF"/>
</svg>
