<svg width="30" height="30" viewBox="0 0 30 30" fill="none" xmlns="http://www.w3.org/2000/svg">
<g opacity="0.8">
<path d="M15.0001 0.0625C6.71586 0.0625 0 6.77836 0 15.0626C0 22.4926 5.40783 28.6459 12.4984 29.8374V18.192H8.87992V14.0013H12.4984V10.9113C12.4984 7.3259 14.6882 5.37209 17.8871 5.37209C19.4191 5.37209 20.7357 5.48625 21.1179 5.53653V9.28419L18.8993 9.28526C17.16 9.28526 16.8247 10.1116 16.8247 11.3246V13.9992H20.9748L20.4335 18.1899H16.8247V29.9376C24.2463 29.0343 30 22.7243 30 15.0583C30 6.77836 23.2841 0.0625 15.0001 0.0625Z" fill="white"/>
</g>
</svg>
