<svg width="80" height="80" viewBox="0 0 80 80" fill="none" xmlns="http://www.w3.org/2000/svg">
<g clip-path="url(#clip0)">
<path d="M65.3363 3.99131H14.6637V1.34523C14.6637 0.816008 14.333 0.308842 13.8479 0.110385C13.3407 -0.0880711 12.7674 0.0221825 12.3925 0.397045L0.396913 12.3926C-0.132304 12.9219 -0.132304 13.7598 0.396913 14.289L12.3925 26.2846C12.7674 26.6595 13.3407 26.7918 13.8479 26.5712C14.355 26.3728 14.6637 25.8877 14.6637 25.3364V22.6683H65.3363C67.5414 22.6683 69.3275 24.4544 69.3275 26.6595V43.9913C69.3275 46.1964 67.5414 47.9825 65.3363 47.9825H58.677V35.9869C58.677 35.2592 58.0816 34.6639 57.3539 34.6639H1.32304C0.595369 34.6639 2.62865e-08 35.2592 2.62865e-08 35.9869V78.655C2.62865e-08 79.3827 0.595369 79.9781 1.32304 79.9781H57.3319C58.0595 79.9781 58.6549 79.3827 58.6549 78.655V56.009H65.3142C73.4068 56.009 79.978 49.4378 79.978 41.3452V18.6771C80 10.5845 73.4289 3.99131 65.3363 3.99131ZM2.66814 69.3276H56.0088V71.9957H2.66814V69.3276ZM2.66814 60.1324C6.01985 60.7058 8.64388 63.3298 9.2172 66.6815H2.66814V60.1324ZM56.0088 54.6639V57.4202C51.2018 58.0156 47.3649 61.8524 46.7696 66.6594H11.9074C11.312 61.8524 7.47519 58.0156 2.66814 57.4202V46.5713C7.47519 45.9759 11.312 42.1391 11.9074 37.332H46.7696C47.3649 42.1391 51.2018 45.9759 56.0088 46.5713V54.6639ZM56.0088 60.1324V66.6815H49.4598C50.011 63.3298 52.6571 60.6837 56.0088 60.1324ZM56.0088 43.8811C52.6571 43.3077 50.0331 40.6837 49.4598 37.332H56.0088V43.8811ZM9.2172 37.332C8.64388 40.6837 6.01985 43.3077 2.66814 43.8811V37.332H9.2172ZM2.66814 77.332V74.6639H56.0088V77.332H2.66814ZM77.3319 41.3452C77.3319 47.9604 71.9515 53.3408 65.3363 53.3408H58.677V50.6727H65.3363C69.0187 50.6727 71.9956 47.6738 71.9956 44.0134V26.6815C71.9956 22.999 68.9967 20.0222 65.3363 20.0222H13.3407C12.613 20.0222 12.0176 20.6176 12.0176 21.3452V22.117L3.2194 13.3408L11.9956 4.56463V5.33641C11.9956 6.06408 12.591 6.65945 13.3186 6.65945H65.3142C71.9295 6.65945 77.3098 12.0398 77.3098 18.655V41.3452H77.3319Z" fill="#EF33B4"/>
<path d="M29.3275 42.6682C24.1896 42.6682 20 46.8579 20 51.9957C20 57.1335 24.1896 61.3231 29.3275 61.3231C34.4653 61.3231 38.6549 57.1335 38.6549 51.9957C38.677 46.8579 34.4873 42.6682 29.3275 42.6682ZM29.3275 58.677C25.645 58.677 22.6681 55.6781 22.6681 52.0177C22.6681 48.3352 25.667 45.3584 29.3275 45.3584C32.9879 45.3584 35.9868 48.3573 35.9868 52.0177C36.0088 55.6781 33.0099 58.677 29.3275 58.677Z" fill="#EF33B4"/>
</g>
<defs>
<clipPath id="clip0">
<rect width="80" height="80" fill="white"/>
</clipPath>
</defs>
</svg>
