<svg width="80" height="79" viewBox="0 0 80 79" fill="none" xmlns="http://www.w3.org/2000/svg">
<g clip-path="url(#clip0)">
<path d="M45.1707 59.9712H20.8783C20.0321 59.9712 19.2546 60.6683 19.2546 61.6209C19.2546 62.4806 19.9407 63.2706 20.8783 63.2706H45.1935C46.0396 63.2706 46.8171 62.5736 46.8171 61.6209C46.8171 60.7612 46.0396 59.9712 45.1707 59.9712Z" fill="#EF33B4"/>
<path d="M79.1914 63.7119L2.46971 16.1254C1.73793 15.6607 0.731748 15.8466 0.228655 16.6831C-0.228702 17.4266 -0.0457589 18.449 0.777484 18.9602L77.4763 66.5466C78.2081 67.0114 79.2142 66.8255 79.7173 65.989C80.2204 65.1757 79.9918 64.2231 79.1914 63.7119Z" fill="#EF33B4"/>
<path d="M20.8783 43.9617C20.0321 43.9617 19.2546 44.6587 19.2546 45.6114C19.2546 46.4711 19.9407 47.2611 20.8783 47.2611H33.4327L38.7609 43.9617H20.8783Z" fill="#EF33B4"/>
<path d="M48.8826 47.2612C48.5 46 48 44.5 46.3281 43.9618L40.9999 47.2612L48.8826 47.2612Z" fill="#EF33B4"/>
<path d="M48.8826 35.8799C48.5 37.1411 48 38.6411 46.3281 39.1794L40.9999 35.8799L48.8826 35.8799Z" fill="#EF33B4"/>
<path d="M60.0885 43.9617C60.9346 43.9617 61.7122 44.6587 61.7122 45.6114C61.7122 46.4711 61.0261 47.2611 60.0885 47.2611H59.5341L54.2059 43.9617H60.0885Z" fill="#EF33B4"/>
<path d="M38.9667 39.1752L33.6385 35.8757H31.2145H30.78H20.8783C20.0321 35.8757 19.2546 36.5728 19.2546 37.5255C19.2546 38.3852 19.9407 39.1752 20.8783 39.1752H36.0396H36.4741H38.9667Z" fill="#EF33B4"/>
<path d="M54.0001 39.1752L59.3283 35.8757H60.0885C60.9346 35.8757 61.7122 36.5728 61.7122 37.5255C61.7122 38.3852 61.0261 39.1752 60.0885 39.1752H56.9272H56.4927H54.0001Z" fill="#EF33B4"/>
<path d="M34.2559 30.9962H59.0676C59.9137 30.9962 60.6912 30.2992 60.6912 29.3465C60.6912 28.4868 60.0051 27.6968 59.0676 27.6968H28.9277L34.2559 30.9962Z" fill="#EF33B4"/>
<path d="M59.0905 52.0476H56.9867H56.5522H34.2103L28.8821 55.3471H59.1134C59.9595 55.3471 60.737 54.65 60.737 53.6973C60.7141 52.8376 60.0281 52.0476 59.0905 52.0476Z" fill="#EF33B4"/>
<path d="M0.251551 65.9892C0.731776 66.8024 1.76083 66.9883 2.4926 66.5468L79.1914 18.9603C79.9918 18.4724 80.1747 17.4268 79.7402 16.6832C79.26 15.87 78.231 15.6841 77.4992 16.1256L0.800379 63.7121C4.37279e-06 64.2233 -0.228674 65.1759 0.251551 65.9892Z" fill="#EF33B4"/>
<path d="M12.5544 22.6314L9.30713 20.6099V62.0621L12.5544 60.0406V22.6314Z" fill="#EF33B4"/>
<path d="M71.5077 28.7424L68.2605 30.7639V51.9083L71.5077 53.9298V28.7424Z" fill="#EF33B4"/>
<path d="M12.5544 17.357V9.75895C12.5544 6.11096 15.4586 3.22975 18.9802 3.22975H53.5107V18.3794C53.5107 19.2391 54.1967 20.0291 55.1343 20.0291H68.2376V25.5127L71.4848 23.4912V18.3794C71.4848 18.2167 71.3934 17.9379 71.3934 17.7752C71.3019 17.7752 71.3019 17.6823 71.2333 17.6126C71.1418 17.5196 71.1418 17.4499 71.0732 17.357L56.3463 0.511183C56.2548 0.418241 56.0948 0.348534 56.0033 0.255591C55.9118 0.255591 55.9118 0.162649 55.8432 0.162649C55.6831 0.0697068 55.4087 0 55.1572 0H18.9802C13.6749 0 9.30713 4.438 9.30713 9.82865V15.3355L12.5544 17.357ZM56.7808 5.92508L66.2938 16.7993H56.7808V5.92508Z" fill="#EF33B4"/>
<path d="M68.2605 57.1826V70.0784C68.2605 73.7264 65.4248 76.7005 61.8346 76.7005H18.9802C15.39 76.7005 12.5544 73.7496 12.5544 70.1713V65.3151L9.30713 67.3366V70.1713C9.30713 75.562 13.6749 80 18.9802 80H61.8117C67.1171 80 71.4848 75.562 71.4848 70.1713V59.2041L68.2605 57.1826Z" fill="#EF33B4"/>
</g>
<defs>
<clipPath id="clip0">
<rect width="80" height="78.7646" fill="white"/>
</clipPath>
</defs>
</svg>
