<svg width="80" height="80" viewBox="0 0 80 80" fill="none" xmlns="http://www.w3.org/2000/svg">
<g clip-path="url(#clip0)">
<path d="M47.3435 9.61298C46.5056 9.4035 45.6676 9.91557 45.4581 10.7768C45.2487 11.6147 45.7607 12.4527 46.6219 12.6622C59.2841 15.7113 68.1291 26.9537 68.1291 40.0116C68.1291 55.5135 55.5134 68.1291 40.0115 68.1291C24.5096 68.1291 11.8707 55.5135 11.8707 40.0116C11.8707 26.977 20.7156 15.7113 33.3778 12.6622C34.2158 12.4527 34.7278 11.6147 34.5416 10.7768C34.3322 9.93885 33.4942 9.42678 32.6563 9.61298C25.9528 11.219 19.8777 15.1061 15.5716 20.5295C11.1259 26.1157 8.75171 32.8425 8.75171 40.0116C8.75171 57.2359 22.7639 71.2714 40.0115 71.2714C57.2591 71.2714 71.2713 57.2592 71.2713 40.0116C71.2713 32.8658 68.9205 26.1157 64.4514 20.5295C60.1221 15.1061 54.047 11.2423 47.3435 9.61298Z" fill="#EF33B4"/>
<path d="M79.0688 36.2408L77.23 32.8192L77.5326 28.6063C77.8352 25.9062 76.7412 23.276 74.6464 21.5536L71.6205 19.0631L70.4334 15.4785C69.7584 12.732 67.6868 10.5207 64.9635 9.70606L61.2161 8.56553L58.3531 5.26032C56.654 3.25857 54.0936 2.23443 51.4867 2.49046L47.5996 2.88616L43.759 0.930964C41.4081 -0.325946 38.5917 -0.325946 36.2408 0.930964L32.8192 2.76978L28.6295 2.46719C25.9062 2.1646 23.276 3.25857 21.5536 5.35342L19.0631 8.37932L15.4785 9.5664C12.7319 10.2414 10.5207 12.3363 9.70606 15.0363L8.56553 18.7837L5.26032 21.67C3.25857 23.3691 2.23443 25.9295 2.49046 28.5364L2.88616 32.4235L0.930964 36.2408C-0.325946 38.5917 -0.325946 41.4081 0.930964 43.759L2.76978 47.1806L2.46719 51.3936C2.1646 54.0936 3.25857 56.7238 5.35342 58.4462L8.37932 60.9368L9.5664 64.5213C10.2414 67.2679 12.313 69.4791 15.0363 70.2938L18.7837 71.4343L21.6467 74.7395C23.3459 76.7413 25.9062 77.7654 28.5131 77.5094L32.4003 77.1137L36.2175 79.0223C37.4046 79.6508 38.6848 79.9534 39.9883 79.9534C41.2685 79.9534 42.5719 79.6508 43.7357 79.0223L47.1573 77.1835L51.3703 77.4861C54.0703 77.7887 56.7005 76.6947 58.4229 74.5999L60.9135 71.574L64.498 70.3869C67.2446 69.7119 69.4558 67.6403 70.2705 64.917L71.411 61.1695L74.7162 58.3066C76.718 56.6074 77.7421 54.0471 77.4861 51.4401L77.0904 47.553L78.999 43.7357C80.3258 41.4081 80.3258 38.5917 79.0688 36.2408ZM76.299 42.3159C76.299 42.3392 76.2757 42.3392 76.2757 42.3624L74.1576 46.5987C74.0179 46.8547 73.9714 47.1573 73.9947 47.4599L74.4369 51.7893C74.5998 53.372 73.9714 54.9315 72.7377 55.979L69.0601 59.1445C68.8274 59.3307 68.6644 59.5868 68.5946 59.8661L67.3377 64.0558C66.8256 65.7317 65.4756 67.0118 63.7764 67.4075C63.7299 67.4075 63.6833 67.4308 63.6368 67.4541L59.5402 68.8041C59.2609 68.8972 59.0048 69.0601 58.8186 69.2929L56.0488 72.6679C55.0014 73.9481 53.372 74.6231 51.7194 74.4369C51.6961 74.4369 51.6729 74.4369 51.6496 74.4369L46.9478 74.0878C46.6452 74.0645 46.3659 74.1343 46.0866 74.274L42.2693 76.3223C40.8262 77.0904 39.1271 77.0904 37.6839 76.3223C37.6607 76.3223 37.6607 76.299 37.6374 76.299L33.4011 74.1809C33.1916 74.0645 32.9356 74.018 32.7028 74.018C32.6563 74.018 32.6097 74.018 32.5399 74.018L28.2106 74.4602C26.6278 74.6231 25.0683 73.9947 24.0209 72.761L20.8553 69.0834C20.6691 68.8507 20.4131 68.6877 20.1338 68.6179L15.9441 67.361C14.2682 66.8489 12.988 65.4989 12.5923 63.7997C12.5923 63.7532 12.569 63.7066 12.5457 63.6601L11.1957 59.5635C11.1026 59.2842 10.9397 59.0281 10.7069 58.8419L7.33189 56.0721C6.05171 55.0246 5.3767 53.3953 5.56291 51.7427C5.56291 51.7194 5.56291 51.6962 5.56291 51.6729L5.91205 46.9711C5.93533 46.6685 5.8655 46.3892 5.72584 46.1099L3.67754 42.2926C2.90943 40.8495 2.90943 39.1503 3.67754 37.7072C3.67754 37.6839 3.70082 37.6839 3.70082 37.6607L5.81895 33.4244C5.9586 33.1684 6.00515 32.8658 5.98188 32.5632L5.58618 28.2338C5.42325 26.6511 6.05171 25.0916 7.28534 24.0441L10.963 20.8786C11.1957 20.6924 11.3587 20.4363 11.4285 20.157L12.6854 15.9673C13.1975 14.2915 14.5475 13.0113 16.2466 12.6156C16.2932 12.6156 16.3397 12.5923 16.3863 12.569L20.4829 11.219C20.7622 11.1259 21.0182 10.963 21.2045 10.7302L23.9743 7.33189C25.0217 6.05171 26.6511 5.3767 28.3037 5.56291C28.3269 5.56291 28.3502 5.56291 28.3735 5.56291L33.0753 5.91205C33.3779 5.93533 33.6572 5.8655 33.9365 5.72584L37.7538 3.67755C39.1969 2.90943 40.896 2.90943 42.3392 3.67755C42.3624 3.67755 42.3624 3.70082 42.3857 3.70082L46.622 5.81895C46.878 5.9586 47.1806 6.00516 47.4832 5.98188L51.8125 5.53963C53.3953 5.3767 54.9548 6.00516 56.0022 7.23879L59.1678 10.9164C59.354 11.1492 59.61 11.3121 59.8893 11.3819L64.079 12.6388C65.7549 13.1509 67.0351 14.5009 67.4308 16.2001C67.4308 16.2466 67.4541 16.2932 67.4773 16.3398L68.8274 20.4363C68.9205 20.7157 69.0834 20.9717 69.3162 21.1579L72.6912 23.9278C73.9714 24.9752 74.6464 26.6045 74.4602 28.2571C74.4602 28.2804 74.4602 28.3037 74.4602 28.3269L74.111 33.0287C74.0878 33.3313 74.1576 33.6106 74.2972 33.8899L76.3455 37.7072C77.0671 39.1503 77.0671 40.8728 76.299 42.3159Z" fill="#EF33B4"/>
<path d="M40.0116 11.8707C40.8729 11.8707 41.5711 11.1724 41.5711 10.3112C41.5711 9.44999 40.8729 8.75171 40.0116 8.75171C39.1504 8.75171 38.4521 9.44999 38.4521 10.3112C38.4521 11.1724 39.1504 11.8707 40.0116 11.8707Z" fill="#EF33B4"/>
<path d="M25.6504 31.958H17.6201C16.9451 31.958 16.3167 32.2839 16.3167 32.8891V47.809C16.3167 48.4375 17.0615 48.7401 17.8063 48.7401C18.5512 48.7401 19.296 48.4142 19.296 47.809V41.5245H22.8107C23.4624 41.5245 23.7185 40.896 23.7185 40.384C23.7185 39.7555 23.3926 39.1969 22.8107 39.1969H19.296V34.6115H25.6271C26.2323 34.6115 26.5349 33.983 26.5349 33.2847C26.5581 32.633 26.2788 31.958 25.6504 31.958Z" fill="#EF33B4"/>
<path d="M38.941 46.9477L35.9384 41.3615C37.6608 40.8261 38.941 39.4063 38.941 36.7761C38.941 33.1217 36.497 31.9812 33.4944 31.9812H28.9555C28.3736 31.9812 28.0012 32.4234 28.0012 32.889V47.8322C28.0012 48.4607 28.7693 48.7633 29.4909 48.7633C30.259 48.7633 30.9806 48.4374 30.9806 47.8322V41.827H32.9125L36.1711 48.1581C36.4039 48.6236 36.7996 48.8797 37.1953 48.8797C38.0798 48.8797 39.0574 48.065 39.0574 47.3202C39.0574 47.2271 39.0341 47.0641 38.941 46.9477ZM33.4944 39.4761H30.9573V34.5881H33.4944C34.9841 34.5881 35.9616 35.2399 35.9616 37.0554C35.9616 38.8477 34.9841 39.4761 33.4944 39.4761Z" fill="#EF33B4"/>
<path d="M50.5791 46.1332H44.0851V41.5246H47.5765C48.2282 41.5246 48.5075 40.8961 48.5075 40.384C48.5075 39.7556 48.1584 39.197 47.5765 39.197H44.0851V34.6116H50.5791C51.1843 34.6116 51.5101 33.9831 51.5101 33.2848C51.5101 32.6564 51.2075 32.0046 50.5791 32.0046H42.4092C41.7342 32.0046 41.1057 32.3305 41.1057 32.9357V47.8557C41.1057 48.4841 41.7574 48.7867 42.4092 48.7867H50.5791C51.2308 48.7867 51.5101 48.1117 51.5101 47.5065C51.5101 46.7617 51.161 46.1332 50.5791 46.1332Z" fill="#EF33B4"/>
<path d="M62.7524 46.1332H56.2584V41.5246H59.7498C60.4015 41.5246 60.6809 40.8961 60.6809 40.384C60.6809 39.7556 60.3317 39.197 59.7498 39.197H56.2584V34.6116H62.7524C63.3576 34.6116 63.6835 33.9831 63.6835 33.2848C63.6835 32.6564 63.3809 32.0046 62.7524 32.0046H54.5825C53.9075 32.0046 53.2791 32.3305 53.2791 32.9357V47.8557C53.2791 48.4841 53.9308 48.7867 54.5825 48.7867H62.7524C63.4042 48.7867 63.6835 48.1117 63.6835 47.5065C63.6835 46.7617 63.3576 46.1332 62.7524 46.1332Z" fill="#EF33B4"/>
</g>
<defs>
<clipPath id="clip0">
<rect width="80" height="80" fill="white"/>
</clipPath>
</defs>
</svg>
