<svg width="80" height="80" viewBox="0 0 80 80" fill="none" xmlns="http://www.w3.org/2000/svg">
<g clip-path="url(#clip0)">
<path d="M77.2067 32.5317C76.3881 31.1568 75.6148 29.8581 75.1948 28.5643C74.7487 27.1903 74.5989 25.6345 74.4405 23.9873C74.187 21.3553 73.9252 18.6335 72.362 16.4857C70.7827 14.3156 68.2642 13.226 65.8288 12.1723C64.3205 11.5198 62.8959 10.9034 61.7464 10.0668C60.6186 9.24605 59.6066 8.0923 58.535 6.87089C56.7744 4.86402 54.9539 2.78886 52.3633 1.94777C49.8847 1.14292 47.2394 1.72933 44.6811 2.29621C43.1113 2.64417 41.488 3.00386 40 3.00386C38.5122 3.00386 36.8887 2.64402 35.3189 2.29621C32.7606 1.72933 30.1152 1.14292 27.6366 1.94792C25.0461 2.78902 23.2256 4.86417 21.465 6.87105C20.3936 8.0923 19.3814 9.24605 18.2536 10.0668C17.8567 10.3557 17.4039 10.6348 16.8692 10.92C16.2981 11.2245 16.0822 11.9343 16.3867 12.5054C16.6912 13.0765 17.4011 13.2923 17.9723 12.9878C18.6039 12.6509 19.1472 12.3153 19.6328 11.9617C20.9714 10.9875 22.1181 9.68042 23.227 8.41652C24.8502 6.56652 26.3831 4.81902 28.3606 4.17683C30.2323 3.56933 32.4569 4.0623 34.812 4.58433C36.505 4.95949 38.2558 5.34746 40.0003 5.34746C41.7448 5.34746 43.4955 4.95949 45.1886 4.58417C47.5441 4.0623 49.7689 3.56933 51.6398 4.17667C53.6173 4.81871 55.1505 6.56621 56.7736 8.41636C57.8825 9.68027 59.0291 10.9873 60.3678 11.9615C61.7272 12.9509 63.3394 13.6484 64.8986 14.3229C67.1441 15.2943 69.2648 16.212 70.4675 17.8645C71.6539 19.4948 71.8744 21.7859 72.108 24.2115C72.2716 25.9117 72.4408 27.6696 72.9662 29.2878C73.4673 30.8312 74.345 32.3051 75.1936 33.7304C76.4597 35.8584 77.6562 37.8679 77.6562 40C77.6562 42.132 76.4597 44.1417 75.1928 46.2693C74.3442 47.6946 73.4667 49.1684 72.9656 50.7117C72.4402 52.3298 72.2711 54.0878 72.1073 55.7881C71.8739 58.2136 71.6534 60.5048 70.4669 62.1351C69.2642 63.7876 67.1434 64.7051 64.898 65.6765C63.3387 66.351 61.7266 67.0485 60.3672 68.0379C59.0286 69.0121 57.8819 70.3192 56.773 71.5831C55.1498 73.4331 53.6169 75.1806 51.6394 75.8226C49.768 76.4303 47.5434 75.9371 45.188 75.4151C43.4948 75.04 41.7442 74.652 39.9998 74.652C38.2553 74.652 36.5047 75.04 34.8116 75.4151C32.4562 75.9371 30.2317 76.4301 28.3602 75.8226C26.3827 75.1806 24.8495 73.4331 23.2266 71.5829C22.1177 70.319 20.9711 69.012 19.6323 68.0378C18.273 67.0484 16.6606 66.3509 15.1016 65.6764C12.8562 64.705 10.7353 63.7873 9.53266 62.135C8.34625 60.5046 8.12578 58.2136 7.89219 55.7879C7.72859 54.0878 7.55938 52.3298 7.03406 50.7117C6.53297 49.1684 5.65547 47.6945 4.80688 46.2693C3.54031 44.1417 2.34375 42.132 2.34375 40C2.34375 37.8679 3.54031 35.8584 4.80719 33.7307C5.65578 32.3054 6.53328 30.8315 7.03438 29.2882C7.55984 27.6701 7.72891 25.912 7.89266 24.2118C8.12609 21.7862 8.34656 19.4951 9.53312 17.8648C10.2167 16.9256 11.2408 16.1479 12.8538 15.3434C13.433 15.0545 13.6683 14.3507 13.3794 13.7717C13.0905 13.1925 12.3867 12.9571 11.8077 13.246C10.4833 13.9067 8.8125 14.872 7.63797 16.4859C6.07484 18.6337 5.81297 21.3553 5.55953 23.9875C5.40109 25.6346 5.25125 27.1904 4.80516 28.5646C4.38516 29.8584 3.61188 31.157 2.79328 32.5318C1.42 34.8381 0 37.2231 0 40C0 42.777 1.42 45.162 2.79328 47.4684C3.61188 48.8432 4.38516 50.1418 4.80516 51.4356C5.25125 52.8096 5.40094 54.3654 5.55953 56.0125C5.81281 58.6446 6.07484 61.3664 7.63797 63.5142C9.21734 65.6843 11.7358 66.7739 14.1712 67.8276C15.6795 68.4801 17.1042 69.0965 18.2536 69.9331C19.3814 70.7539 20.3934 71.9075 21.465 73.1289C23.2256 75.1357 25.0462 77.211 27.6367 78.052C28.5097 78.3354 29.403 78.4464 30.3061 78.4464C31.9675 78.4464 33.6616 78.0709 35.3189 77.7037C36.8887 77.3557 38.5122 76.996 40 76.996C41.488 76.996 43.1113 77.3557 44.6811 77.7037C47.2394 78.2706 49.8847 78.857 52.3634 78.052C54.9539 77.2109 56.7744 75.1357 58.5348 73.1289C59.6064 71.9075 60.6186 70.7539 61.7464 69.9329C62.8958 69.0965 64.3205 68.4801 65.8288 67.8275C68.2642 66.7737 70.7827 65.6842 72.362 63.514C73.9252 61.3662 74.187 58.6445 74.4405 56.0125C74.5989 54.3653 74.7487 52.8095 75.1948 51.4354C75.6148 50.1417 76.3881 48.8431 77.2067 47.4682C78.58 45.1618 80 42.7768 80 40C80 37.2231 78.58 34.8381 77.2067 32.5317Z" fill="#EF33B4"/>
<path d="M11.2584 30.6614C10.9256 31.6865 10.3048 32.7287 9.6478 33.8323C8.5192 35.7278 7.35217 37.6878 7.35217 40C7.35217 42.3121 8.5192 44.2721 9.6478 46.1678C10.3048 47.2714 10.9255 48.3137 11.2584 49.3387C11.6126 50.4296 11.7328 51.679 11.8601 53.0018C12.0683 55.1651 12.2836 57.4021 13.5864 59.1923C14.9023 61.0006 16.9722 61.896 18.9737 62.762C20.1848 63.286 21.3287 63.7809 22.2406 64.4445C23.135 65.0954 23.9475 66.0215 24.8076 67.0021C26.2547 68.6517 27.7509 70.3571 29.909 71.0579C30.6425 71.296 31.3895 71.389 32.1419 71.389C33.51 71.389 34.8965 71.0817 36.2533 70.781C37.5722 70.4887 38.818 70.2126 39.9998 70.2126C41.1817 70.2126 42.4275 70.4887 43.7464 70.781C45.8495 71.2471 48.0237 71.7292 50.0906 71.0579C52.2486 70.3571 53.7448 68.6517 55.1919 67.0021C56.052 66.0217 56.8647 65.0954 57.7589 64.4445C58.6708 63.7809 59.8147 63.286 61.0258 62.762C63.0273 61.8959 65.0972 61.0006 66.4131 59.1923C67.7159 57.4021 67.9311 55.1653 68.1394 53.002C68.2667 51.6792 68.387 50.4296 68.7412 49.3389C69.0741 48.3137 69.6947 47.2714 70.3519 46.1678C71.4805 44.2723 72.6475 42.3123 72.6475 40.0001C72.6475 37.6881 71.4805 35.7279 70.3519 33.8325C69.6948 32.7289 69.0742 31.6865 68.7412 30.6614C68.387 29.5706 68.2667 28.321 68.1394 26.9982C67.9312 24.835 67.7159 22.5981 66.4131 20.8079C65.0972 18.9996 63.0273 18.1042 61.0258 17.2382C59.8147 16.7142 58.6708 16.2193 57.7589 15.5557C56.8645 14.9048 56.052 13.9787 55.1919 12.9981C53.7448 11.3486 52.2486 9.64308 50.0906 8.9423C48.0236 8.27121 45.8494 8.75308 43.7464 9.21918C42.4275 9.51152 41.1817 9.78761 39.9998 9.78761C38.818 9.78761 37.5722 9.51152 36.2533 9.21918C34.1503 8.75308 31.9758 8.27121 29.909 8.9423C27.7509 9.64293 26.2547 11.3486 24.8076 12.9981C23.9475 13.9786 23.135 14.9048 22.2406 15.5557C21.3287 16.2193 20.1848 16.7143 18.9737 17.2382C16.9722 18.1042 14.9023 18.9996 13.5864 20.8079C12.2836 22.5981 12.0684 24.835 11.8601 26.9982C11.7328 28.3209 11.6126 29.5703 11.2584 30.6614ZM14.1931 27.2226C14.3794 25.2873 14.5553 23.4595 15.4814 22.1868C16.4206 20.8964 18.1128 20.1642 19.9045 19.389C21.1795 18.8375 22.498 18.267 23.6198 17.4504C24.725 16.6462 25.6628 15.5773 26.5697 14.5436C27.8647 13.0673 29.088 11.6729 30.633 11.1714C32.0922 10.6978 33.867 11.0909 35.7462 11.5073C37.1303 11.814 38.5616 12.1312 40 12.1312C41.4384 12.1312 42.8697 11.814 44.2537 11.5073C46.1326 11.0907 47.9073 10.6973 49.367 11.1714C50.912 11.6729 52.1353 13.0673 53.4303 14.5436C54.3372 15.5773 55.275 16.6462 56.3801 17.4504C57.502 18.267 58.8205 18.8375 60.0955 19.389C61.887 20.1642 63.5792 20.8962 64.5186 22.1868C65.4447 23.4595 65.6206 25.2873 65.8069 27.2226C65.9406 28.6128 66.079 30.0503 66.5125 31.3851C66.9264 32.66 67.6442 33.8654 68.3384 35.0314C69.3494 36.7292 70.3042 38.3328 70.3042 40C70.3042 41.6671 69.3494 43.2709 68.3384 44.9685C67.6442 46.1343 66.9264 47.34 66.5125 48.6148C66.079 49.9496 65.9406 51.3871 65.8069 52.7773C65.6206 54.7126 65.4447 56.5406 64.5186 57.8131C63.5794 59.1035 61.8872 59.8357 60.0955 60.6109C58.8205 61.1625 57.502 61.7329 56.3801 62.5495C55.275 63.3537 54.3372 64.4228 53.4303 65.4564C52.1353 66.9326 50.912 68.3268 49.367 68.8285C47.9076 69.3024 46.1328 68.909 44.2537 68.4926C42.8697 68.1859 41.4384 67.8687 40 67.8687C38.5616 67.8687 37.1303 68.1859 35.7462 68.4926C33.8673 68.909 32.0923 69.3024 30.633 68.8285C29.088 68.327 27.8647 66.9326 26.5697 65.4564C25.6628 64.4226 24.725 63.3537 23.6198 62.5495C22.498 61.7329 21.1795 61.1626 19.9045 60.6109C18.113 59.8357 16.4208 59.1037 15.4814 57.8131C14.5553 56.5404 14.3794 54.7125 14.1931 52.7773C14.0594 51.3871 13.9211 49.9498 13.4876 48.6149C13.0737 47.3401 12.3559 46.1346 11.6617 44.9687C10.6508 43.2709 9.69592 41.6673 9.69592 40C9.69592 38.3328 10.6508 36.7292 11.6617 35.0314C12.3558 33.8654 13.0737 32.6598 13.4876 31.3851C13.9209 30.0503 14.0594 28.6128 14.1931 27.2226Z" fill="#EF33B4"/>
<path d="M35.7787 55.5355C35.7102 55.5355 35.6419 55.5344 35.5733 55.532C33.8408 55.4733 32.2118 54.6752 31.1038 53.342L25.2862 46.3422C23.9966 44.7905 24.2098 42.4789 25.7615 41.1892L27.3924 39.8337C28.9443 38.5442 31.2555 38.7573 32.5454 40.3091L35.4763 43.8356C35.641 44.0337 35.851 44.0695 35.9615 44.0733C36.0708 44.077 36.2837 44.0556 36.4615 43.8689C36.4713 43.8586 36.4813 43.8484 36.4916 43.8384L51.4613 29.2328C52.1338 28.5355 53.0366 28.1389 54.0058 28.1153C54.9815 28.0909 55.9108 28.4498 56.6185 29.1239L58.154 30.5867C59.6149 31.9783 59.6711 34.2989 58.2796 35.7598C58.2715 35.7684 58.2632 35.7767 58.2549 35.785L50.3001 43.6476C49.8396 44.1028 49.0976 44.0983 48.6429 43.638C48.1879 43.1776 48.1922 42.4356 48.6524 41.9808L56.5927 34.1323C57.0826 33.6066 57.059 32.7803 56.5374 32.2834L55.0018 30.8206C54.7474 30.5783 54.4136 30.4486 54.0626 30.458C53.7113 30.4666 53.3844 30.6112 53.1421 30.8656C53.1321 30.8759 53.1221 30.8861 53.1119 30.8961L38.1416 45.5022C37.5521 46.1114 36.7268 46.4445 35.8819 46.415C35.0258 46.3861 34.221 45.9917 33.6737 45.333L30.7427 41.8064C30.2791 41.2486 29.448 41.172 28.8904 41.6355L27.2593 42.9909C26.7015 43.4545 26.6249 44.2855 27.0884 44.8433L32.906 51.8431C33.5868 52.6623 34.5879 53.1528 35.6524 53.1887C36.716 53.2256 37.7488 52.8033 38.4835 52.032C38.4916 52.0234 38.4999 52.0152 38.5082 52.0069L45.0783 45.5128C45.5388 45.0576 46.2808 45.0622 46.7357 45.5225C47.1907 45.9828 47.1863 46.7248 46.7262 47.1797L40.1679 53.662C39.0205 54.8598 37.4316 55.5355 35.7787 55.5355Z" fill="#EF33B4"/>
</g>
<defs>
<clipPath id="clip0">
<rect width="80" height="80" fill="white"/>
</clipPath>
</defs>
</svg>
