<svg width="80" height="80" viewBox="0 0 80 80" fill="none" xmlns="http://www.w3.org/2000/svg">
<path d="M48.8107 35.364L59.2267 42.7787C59.6895 43.1082 60.3104 43.1082 60.7733 42.7787L71.1893 35.364C73.3592 33.8271 74.6541 31.3376 74.6667 28.6787V12.9027C74.6674 12.3718 74.3532 11.891 73.8667 11.6787L60.5333 5.91866C60.1963 5.77333 59.8143 5.77333 59.4773 5.91866L46.144 11.6787C45.6574 11.891 45.3432 12.3718 45.344 12.9027V28.6787C45.3543 31.3356 46.645 33.8247 48.8107 35.364ZM48 13.7787L60 8.59599L72 13.7787V28.6787C71.9903 30.4783 71.1117 32.1624 69.6413 33.2L60 40.056L50.3587 33.192C48.89 32.1564 48.0116 30.4756 48 28.6787V13.7787Z" fill="#EF33B4"/>
<path d="M56.5334 31.7333C57.1095 32.1656 57.9248 32.0623 58.3748 31.4999L69.0414 18.1666C69.5017 17.5915 69.4086 16.7522 68.8334 16.292C68.2583 15.8317 67.419 15.9248 66.9588 16.5L57.0921 28.8253L52.8001 25.6C52.419 25.3141 51.9144 25.2533 51.4763 25.4405C51.0383 25.6276 50.7333 26.0342 50.6763 26.5071C50.6194 26.9801 50.819 27.4475 51.2001 27.7333L56.5334 31.7333Z" fill="#EF33B4"/>
<path d="M2.66667 70.6666H4V75.9999C4 78.2091 5.79086 79.9999 8 79.9999H16C18.2091 79.9999 20 78.2091 20 75.9999V70.6666H52V75.9999C52 78.2091 53.7909 79.9999 56 79.9999H64C66.2091 79.9999 68 78.2091 68 75.9999V70.6666H69.3333C70.8061 70.6666 72 69.4727 72 67.9999V47.9999C72.005 46.0676 71.1623 44.2302 69.6947 42.9732L74.2813 39.7092C77.856 37.1707 79.9856 33.0629 80 28.6786V9.39724C80.0008 8.86636 79.6866 8.3856 79.2 8.17324L60.5333 0.109243C60.1963 -0.036089 59.8143 -0.036089 59.4773 0.109243L40.8 8.17324C40.3134 8.3856 39.9992 8.86636 40 9.39724V14.6666H19.8267C16.9999 14.6675 14.481 16.4512 13.5413 19.1172L5.688 41.4319C2.42774 41.9117 0.00910289 44.7045 0 47.9999V67.9999C0 69.4727 1.19391 70.6666 2.66667 70.6666ZM17.3333 75.9999C17.3333 76.7363 16.7364 77.3333 16 77.3333H8C7.26362 77.3333 6.66667 76.7363 6.66667 75.9999V70.6666H17.3333V75.9999ZM12 67.9999H9.33333V65.3333H12V67.9999ZM65.3333 75.9999C65.3333 76.7363 64.7364 77.3333 64 77.3333H56C55.2636 77.3333 54.6667 76.7363 54.6667 75.9999V70.6666H65.3333V75.9999ZM62.6667 67.9999H60V65.3333H62.6667V67.9999ZM42.6667 10.2732L60 2.78524L77.3333 10.2732V28.6732C77.3201 32.1953 75.6075 35.4944 72.7347 37.5319L60 46.6026L47.2653 37.5359C44.3928 35.4986 42.6803 32.2002 42.6667 28.6786V10.2732ZM62.6667 49.3332C63.403 49.3332 64 49.9302 64 50.6666V53.3332C64 54.0696 63.403 54.6666 62.6667 54.6666H54.6667C53.9303 54.6666 53.3333 54.0696 53.3333 53.3332C53.3333 51.1241 55.1242 49.3332 57.3333 49.3332H62.6667ZM40 22.6666V25.3332H30.6667V22.6666H40ZM40 19.9999H37.3333V17.3332H40V19.9999ZM16.0573 19.9999C16.6221 18.4024 18.1322 17.3341 19.8267 17.3332H34.6667V19.9999H30.6667C29.1939 19.9999 28 21.1938 28 22.6666V25.3332C28 26.806 29.1939 27.9999 30.6667 27.9999H40V28.6786C40.0144 33.0629 42.144 37.1707 45.7187 39.7092L48 41.3332H8.54933L16.0573 19.9999ZM2.66667 47.9999C2.66667 45.7908 4.45753 43.9999 6.66667 43.9999H51.7467L55.776 46.8692C52.7859 47.5876 50.6751 50.2581 50.6667 53.3332C50.6667 55.5424 52.4575 57.3332 54.6667 57.3332H62.6667C64.8758 57.3332 66.6667 55.5424 66.6667 53.3332V50.6666C66.6623 49.0196 65.6489 47.5436 64.1133 46.9479L67.4147 44.5972C68.6105 45.3129 69.3398 46.6064 69.3333 47.9999L69.3334 67.9999H65.3333V65.3333C65.3333 63.8605 64.1394 62.6666 62.6667 62.6666H60C58.5272 62.6666 57.3333 63.8605 57.3333 65.3333V67.9999H14.6667V65.3333C14.6667 63.8605 13.4728 62.6666 12 62.6666H9.33333C7.86057 62.6666 6.66667 63.8605 6.66667 65.3333V67.9999H2.66667V47.9999Z" fill="#EF33B4"/>
<path d="M24 20H21.7187C20.0236 20.0019 18.513 21.0695 17.9453 22.6667L12.94 36.8907C12.6955 37.5854 13.0605 38.3469 13.7553 38.5913C14.4501 38.8358 15.2115 38.4708 15.456 37.776L20.4613 23.5573C20.6491 23.0238 21.1531 22.6668 21.7187 22.6667H24C24.7364 22.6667 25.3333 22.0697 25.3333 21.3333C25.3333 20.597 24.7364 20 24 20Z" fill="#EF33B4"/>
<path d="M9.33325 57.3333H17.3333C19.5424 57.3333 21.3333 55.5424 21.3333 53.3333C21.3288 49.6532 18.3467 46.671 14.6666 46.6666H9.33325C7.12411 46.6666 5.33325 48.4575 5.33325 50.6666V53.3333C5.33325 55.5424 7.12411 57.3333 9.33325 57.3333ZM7.99992 50.6666C7.99992 49.9302 8.59687 49.3333 9.33325 49.3333H14.6666C16.8757 49.3333 18.6666 51.1242 18.6666 53.3333C18.6666 54.0697 18.0696 54.6666 17.3333 54.6666H9.33325C8.59687 54.6666 7.99992 54.0697 7.99992 53.3333V50.6666Z" fill="#EF33B4"/>
<path d="M26.6667 65.3333H45.3333C46.8061 65.3333 48 64.1394 48 62.6666V57.3333C48 55.8605 46.8061 54.6666 45.3333 54.6666H26.6667C25.1939 54.6666 24 55.8605 24 57.3333V62.6666C24 64.1394 25.1939 65.3333 26.6667 65.3333ZM26.6667 57.3333H45.3333V62.6666H26.6667V57.3333Z" fill="#EF33B4"/>
</svg>
