<svg width="80" height="80" viewBox="0 0 80 80" fill="none" xmlns="http://www.w3.org/2000/svg">
<g clip-path="url(#clip0)">
<path d="M44.8858 55.8671C45.7318 54.3666 45.9429 52.6267 45.4802 50.9676C45.0175 49.3085 43.9363 47.9287 42.4359 47.0828C41.0046 46.2759 39.3555 46.0482 37.7662 46.4302L34.5413 34.8668C33.6914 31.8203 30.5215 30.0332 27.4753 30.8827L22.9581 32.1426C22.3346 32.3165 21.9703 32.9628 22.144 33.5862C22.3178 34.2097 22.9645 34.5742 23.5877 34.4002L28.1048 33.1403C29.9063 32.6384 31.7809 33.6947 32.2834 35.4965L36.0809 49.1125L25.0808 52.1804C22.8509 52.8022 20.5151 52.3523 18.6714 50.9457C16.6218 49.3822 14.0764 48.8672 11.6879 49.5336L7.49043 50.7043L6.12398 45.8046C5.62146 44.003 6.67853 42.1285 8.47999 41.626L9.41064 41.3665C11.1023 40.8948 12.7189 41.2121 12.7311 41.2145C13.1317 41.2985 13.5469 41.1671 13.8266 40.8685C14.1063 40.5697 14.2099 40.1468 14.1 39.7527C13.7137 38.3683 14.5261 36.9278 15.9104 36.5416L18.5301 35.811C19.1536 35.6372 19.518 34.9908 19.3442 34.3674C19.1705 33.7438 18.5239 33.3797 17.9006 33.5534L15.2808 34.2841C13.1915 34.8668 11.7884 36.714 11.6682 38.7673C10.871 38.7489 9.84613 38.812 8.78109 39.1091L7.85044 39.3686C4.80409 40.2182 3.01669 43.388 3.86625 46.4345L6.31195 55.2035C3.02607 56.2502 1.1257 59.7296 2.05963 63.0781C2.85403 65.9258 5.45161 67.795 8.27342 67.795C8.76922 67.795 9.27189 67.7334 9.773 67.6131L9.89691 68.0576C11.9079 75.2682 18.4847 80.0007 25.6296 80.0007C27.0776 80.0007 28.5492 79.8061 30.0105 79.3986C38.6825 76.9799 43.77 67.9572 41.3513 59.2852L41.2279 58.8428C42.7854 58.3469 44.0789 57.2984 44.8858 55.8671ZM4.3172 62.4478C3.73047 60.3443 4.90097 58.159 6.94182 57.4618L9.14329 65.3555C7.03604 65.8151 4.90394 64.5513 4.3172 62.4478ZM29.3808 77.1403C21.9537 79.2114 14.226 74.8544 12.1546 67.4273L8.12029 52.9617L12.3176 51.791C13.992 51.3241 15.7899 51.6951 17.25 52.809C18.9656 54.118 21.0048 54.7991 23.0904 54.7991C23.9623 54.7991 24.8427 54.68 25.7105 54.4378L36.7106 51.3699L39.0934 59.9139C41.1649 67.3412 36.8078 75.0688 29.3808 77.1403ZM42.8442 54.716C42.3446 55.6019 41.5526 56.2576 40.5979 56.5831L38.3964 48.6894C39.382 48.4737 40.399 48.6248 41.2848 49.1244C42.2398 49.663 42.9281 50.5412 43.2225 51.5973C43.517 52.6532 43.3826 53.7609 42.8442 54.716Z" fill="#EF33B4"/>
<path d="M32.8649 62.1043L22.4299 65.0146C22.1305 65.098 21.8766 65.2971 21.7237 65.5679C21.5711 65.8386 21.5322 66.159 21.6158 66.4584C22.4274 69.368 25.0813 71.2776 27.9644 71.2776C28.5486 71.2776 29.1426 71.1991 29.7321 71.0346C31.4273 70.5619 32.8369 69.4572 33.7011 67.9243C34.5655 66.3913 34.7812 64.6136 34.3085 62.9182C34.1348 62.2949 33.4882 61.9306 32.8649 62.1043ZM31.6597 66.7732C31.1028 67.7607 30.1946 68.4725 29.1026 68.777C27.2391 69.2964 25.314 68.4837 24.3468 66.9132L32.2086 64.7205C32.2042 65.4327 32.0191 66.1357 31.6597 66.7732Z" fill="#EF33B4"/>
<path d="M22.5153 60.9588C22.0217 59.19 20.1811 58.1518 18.4116 58.6451C16.6424 59.1385 15.6044 60.9794 16.0977 62.7487C16.2423 63.2668 16.7131 63.606 17.2261 63.606C17.3301 63.606 17.4362 63.592 17.5415 63.5628C18.165 63.3888 18.5294 62.7426 18.3556 62.1191C18.2092 61.5947 18.5169 61.0491 19.0413 60.9028C19.5655 60.7566 20.1115 61.0642 20.2576 61.5886C20.4316 62.2121 21.0782 62.5766 21.7013 62.4026C22.3248 62.2287 22.6892 61.5822 22.5153 60.9588Z" fill="#EF33B4"/>
<path d="M32.1394 54.8166C30.3702 55.31 29.3321 57.1507 29.8254 58.92C29.9699 59.4381 30.4407 59.7775 30.9537 59.7775C31.0578 59.7775 31.1639 59.7634 31.2692 59.7342C31.8925 59.5603 32.257 58.914 32.0833 58.2906C31.937 57.7662 32.2447 57.2204 32.7691 57.0741C33.2931 56.928 33.8391 57.2355 33.9852 57.7599C34.1593 58.3834 34.8058 58.7481 35.429 58.5739C36.0523 58.4 36.4167 57.7535 36.2429 57.1301C35.7493 55.3609 33.9085 54.3228 32.1394 54.8166Z" fill="#EF33B4"/>
<path d="M73.5838 22.2566C73.493 22.2308 73.4013 22.2079 73.3094 22.1862C73.3519 19.4189 72.6686 16.6766 71.2845 14.1947C69.2085 10.4719 65.807 7.78024 61.7066 6.61583C57.7093 5.48063 53.4896 5.93393 49.8256 7.89321C47.2405 9.27544 45.1278 11.3047 43.6581 13.7653C43.5666 13.7348 43.4745 13.706 43.3818 13.6798C40.03 12.7282 36.528 14.6806 35.5756 18.0329C34.6475 21.3014 36.4813 24.7108 39.6806 25.7617L39.5657 26.1661C38.4013 30.2666 38.9034 34.5748 40.9794 38.2978C43.0554 42.0207 46.457 44.7122 50.5573 45.8766C51.9827 46.2813 53.4548 46.4843 54.9259 46.4843C56.1531 46.4843 57.3797 46.343 58.5766 46.0599C59.2065 45.9108 59.5964 45.2795 59.4474 44.6497C59.2985 44.0196 58.6662 43.6304 58.0374 43.7789C55.7933 44.3095 53.4284 44.2553 51.1977 43.6218C47.6994 42.6285 44.7976 40.3322 43.0265 37.1562C41.2553 33.9801 40.827 30.3045 41.8205 26.8065L42.9719 22.7516C43.1488 22.1291 42.7872 21.481 42.1647 21.3041C41.5424 21.1272 40.8941 21.4886 40.7172 22.1113L40.3215 23.5043C39.4109 23.1815 38.6573 22.5474 38.1824 21.696C37.665 20.7683 37.5402 19.6948 37.8302 18.6732C38.4154 16.6135 40.5309 15.3947 42.5933 15.8964C42.4421 16.2657 42.2999 16.6397 42.1753 17.0226C41.9753 17.638 42.3119 18.2992 42.9274 18.4995C43.5421 18.6992 44.204 18.3631 44.4042 17.7474C45.0773 15.6777 46.1959 13.8817 47.6176 12.4273C49.5862 16.5266 53.2488 19.6422 57.6529 20.8928C59.0998 21.3036 60.5723 21.5071 62.036 21.5071C64.7211 21.5071 67.3757 20.8224 69.7843 19.4783C70.072 19.3178 70.3534 19.1457 70.6308 18.9679C71.1295 21.163 71.0755 23.4603 70.4433 25.6861L68.0127 34.2448C67.1255 37.369 65.1479 40.0766 62.444 41.8688C61.9044 42.2265 61.7571 42.9537 62.1147 43.4932C62.3402 43.8334 62.7127 44.0178 63.0926 44.0178C63.3149 44.0178 63.5398 43.9545 63.739 43.8225C66.9091 41.721 69.2276 38.547 70.2675 34.885L70.3829 34.4783C70.8747 34.5965 71.3678 34.657 71.8546 34.657C74.6087 34.6569 77.1478 32.8401 77.9366 30.0628C78.889 26.7104 76.936 23.2085 73.5838 22.2566ZM68.6426 17.431C65.4678 19.2029 61.7924 19.6315 58.2935 18.6378C54.334 17.5134 51.0778 14.6211 49.4739 10.8419C52.7186 8.54339 56.9339 7.6968 61.0664 8.87043C64.5646 9.86374 67.4666 12.1601 69.2376 15.3361C69.4768 15.7652 69.6895 16.2041 69.8797 16.6497C69.4826 16.9304 69.0695 17.193 68.6426 17.431ZM75.6822 29.4223C75.3922 30.4441 74.7215 31.2914 73.7938 31.8088C72.9422 32.2838 71.968 32.4271 71.0236 32.2232L72.6982 26.3261C72.8646 25.7403 72.9957 25.1503 73.0943 24.5583C75.1104 25.2173 76.2666 27.3643 75.6822 29.4223Z" fill="#EF33B4"/>
<path d="M51.5263 38.0295C52.1137 38.1962 52.7053 38.2758 53.2876 38.2758C56.1012 38.2758 58.695 36.4196 59.501 33.5823C59.6778 32.9598 59.3163 32.3117 58.6937 32.1348L48.5267 29.2474C47.9045 29.0706 47.2561 29.4319 47.0792 30.0546C46.6079 31.7137 46.811 33.4567 47.6511 34.9632C48.4909 36.4693 49.8672 37.5582 51.5263 38.0295ZM56.7626 34.023C55.8119 35.519 53.9564 36.2832 52.1665 35.7748C51.1098 35.4747 50.2332 34.781 49.6982 33.8216C49.3591 33.2137 49.183 32.5453 49.1758 31.8684L56.7626 34.023Z" fill="#EF33B4"/>
<path d="M49.4904 26.438C49.5975 26.4683 49.7051 26.4828 49.8111 26.4828C50.3219 26.4828 50.7914 26.1463 50.9378 25.6306C51.4314 23.8917 50.4184 22.0752 48.6796 21.5813C47.8369 21.342 46.9519 21.4452 46.1874 21.8716C45.4223 22.2982 44.8694 22.9971 44.6303 23.8395C44.4536 24.462 44.815 25.1101 45.4377 25.2869C46.06 25.4634 46.7083 25.102 46.885 24.4795C46.9533 24.2395 47.1108 24.0403 47.3288 23.9187C47.5469 23.7971 47.7991 23.7676 48.0394 23.8359C48.5352 23.9767 48.824 24.4945 48.6832 24.9903C48.5063 25.6133 48.8678 26.2613 49.4904 26.438Z" fill="#EF33B4"/>
<path d="M62.8654 30.2366C62.9725 30.2669 63.0801 30.2815 63.1862 30.2815C63.6969 30.2815 64.1664 29.9451 64.313 29.4294C64.8068 27.6905 63.7939 25.874 62.0548 25.3799C61.2124 25.1408 60.3271 25.2438 59.5625 25.6702C58.7977 26.0967 58.2447 26.7956 58.0055 27.638C57.8286 28.2605 58.1902 28.9086 58.8127 29.0855C59.4347 29.2619 60.0833 28.901 60.2602 28.2783C60.3285 28.0381 60.486 27.8389 60.7041 27.7173C60.9221 27.5956 61.1745 27.5662 61.4146 27.6345C61.9104 27.7753 62.1992 28.2931 62.0584 28.7888C61.8814 29.4116 62.2428 30.0598 62.8654 30.2366Z" fill="#EF33B4"/>
<path d="M62.8762 59.9666L53.7823 58.6373C52.5501 58.4575 51.3635 59.2236 51.0197 60.4197L50.488 62.2713C50.1445 63.4675 50.7445 64.7472 51.8838 65.248L60.2973 68.9467C60.618 69.0876 60.9603 69.1579 61.3028 69.1579C61.6652 69.1579 62.0277 69.079 62.3635 68.9215C63.0163 68.6154 63.5049 68.0423 63.704 67.3491L64.9162 63.1282C65.1151 62.4351 65.0051 61.6901 64.6142 61.0843C64.2231 60.4783 63.5896 60.0709 62.8762 59.9666ZM62.6632 62.4812L61.451 66.7021C61.4381 66.7469 61.4102 66.7796 61.3681 66.7993C61.3258 66.8191 61.2828 66.8196 61.2406 66.8008L52.8271 63.1021C52.7566 63.0712 52.7196 62.9921 52.7408 62.9182L53.2726 61.0668C53.2916 61 53.3534 60.9549 53.421 60.9549C53.4284 60.9549 53.4359 60.9553 53.4432 60.9566L62.5371 62.2859C62.5832 62.2926 62.6193 62.3159 62.6446 62.3549C62.6699 62.394 62.6762 62.4365 62.6632 62.4812Z" fill="#EF33B4"/>
<path d="M49.4358 51.9223L49.5692 53.8439C49.6555 55.0853 50.6569 56.0827 51.8988 56.1637L61.0699 56.7618C61.1244 56.7654 61.1785 56.7671 61.2327 56.7671C61.8948 56.7671 62.5323 56.504 63.0026 56.0316C63.5115 55.5207 63.7745 54.815 63.7247 54.0956L63.4203 49.7146C63.3703 48.9952 63.012 48.3328 62.4374 47.8972C61.8627 47.4614 61.1279 47.2956 60.4221 47.4414L51.4219 49.3025C50.2035 49.5544 49.3497 50.6805 49.4358 51.9223ZM51.8966 51.5977L60.8968 49.7366C60.9082 49.7342 60.9194 49.733 60.9303 49.733C60.9632 49.733 60.9936 49.7436 61.0214 49.7647C61.0585 49.7928 61.0789 49.8307 61.0822 49.8771L61.3868 54.2581C61.3901 54.3045 61.3749 54.3449 61.3421 54.3778C61.3093 54.4108 61.2686 54.4261 61.2227 54.423L52.0516 53.8248C51.9749 53.8198 51.9129 53.7583 51.9077 53.6816C51.9077 53.6816 51.9077 53.6814 51.9076 53.6814L51.7741 51.7598C51.7687 51.6829 51.8215 51.6134 51.8966 51.5977Z" fill="#EF33B4"/>
<path d="M57.4926 70.8277L49.4017 66.4685C48.306 65.8778 46.928 66.1917 46.1963 67.1983L45.0633 68.7564C45.0633 68.7564 45.0631 68.7564 45.0631 68.7565C44.3314 69.7629 44.4576 71.1706 45.3567 72.031L51.9979 78.3843C52.4648 78.8309 53.084 79.0773 53.7245 79.0773C53.7989 79.0773 53.8733 79.074 53.9479 79.0673C54.6661 79.0029 55.3213 78.6315 55.7453 78.0484L58.3282 74.4964C58.7522 73.9132 58.9036 73.1756 58.7434 72.4726C58.5832 71.7693 58.1273 71.1697 57.4926 70.8277ZM56.4326 73.1177L53.8498 76.6696C53.8223 76.7072 53.785 76.7283 53.7386 76.7325C53.6939 76.7369 53.6515 76.7225 53.6181 76.6904L46.9771 70.3372C46.9216 70.2841 46.9138 70.197 46.959 70.1348L48.0921 68.5767C48.1371 68.5148 48.222 68.4949 48.2901 68.5317L56.3808 72.8909C56.4219 72.913 56.4479 72.9473 56.4582 72.9926C56.4685 73.0379 56.4599 73.0802 56.4326 73.1177Z" fill="#EF33B4"/>
<path d="M15.6752 15.5575L24.0569 19.3277C24.3855 19.4753 24.7319 19.5458 25.0747 19.5458C25.9162 19.5458 26.7343 19.1208 27.202 18.3703L28.2208 16.7354H28.2209C28.8789 15.6791 28.6523 14.2841 27.694 13.4903L20.616 7.62776C20.0607 7.1679 19.3344 6.97039 18.622 7.08587C17.9103 7.20134 17.2834 7.6187 16.902 8.23075L14.5795 11.9579C14.1983 12.5699 14.0998 13.3165 14.3097 14.0064C14.5197 14.6963 15.0174 15.2617 15.6752 15.5575ZM16.5688 13.1975L18.8911 9.47016C18.9156 9.43063 18.9516 9.40672 18.9975 9.39922C19.0067 9.39781 19.0156 9.39703 19.0245 9.39703C19.0598 9.39703 19.0922 9.40906 19.1208 9.43281L26.1988 15.2953C26.258 15.3442 26.2721 15.4305 26.2315 15.4958L25.2127 17.1307C25.1721 17.1959 25.0888 17.2218 25.0182 17.1899L16.6365 13.42C16.5941 13.4008 16.5657 13.3686 16.5521 13.324C16.5385 13.2797 16.5441 13.237 16.5688 13.1975Z" fill="#EF33B4"/>
<path d="M15.4469 28.329L24.6125 29.0051C24.6739 29.0097 24.7348 29.0118 24.7955 29.0118C25.9632 29.0118 26.9962 28.1873 27.2405 27.0298L27.6387 25.1449C27.8959 23.9273 27.2059 22.6937 26.0338 22.2755L17.3777 19.1875C16.6985 18.9453 15.9482 19.0081 15.3186 19.3601C14.6894 19.7122 14.2428 20.3188 14.094 21.0241L13.1863 25.3211C13.0374 26.0268 13.2004 26.7619 13.6337 27.3384C14.067 27.9151 14.7278 28.276 15.4469 28.329ZM15.4795 25.8057L16.3872 21.5086C16.3969 21.4632 16.4224 21.4286 16.4629 21.406C16.4869 21.3925 16.5118 21.3858 16.5372 21.3858C16.5546 21.3858 16.5724 21.3891 16.5902 21.3954L25.2464 24.4834C25.3188 24.5094 25.3614 24.5855 25.3456 24.6608L24.9475 26.5457C24.9316 26.6208 24.8639 26.6713 24.785 26.6679L15.6194 25.9918C15.573 25.9883 15.5353 25.9677 15.5074 25.9305C15.4792 25.8932 15.4699 25.8511 15.4795 25.8057Z" fill="#EF33B4"/>
<path d="M30.961 13.4065C31.4412 13.8739 32.072 14.1116 32.705 14.1116C33.2477 14.1116 33.7918 13.937 34.244 13.5828L35.7604 12.3948C35.7604 12.3948 35.7606 12.3948 35.7606 12.3946C36.7401 11.6271 37.0044 10.2388 36.3753 9.16514L31.729 1.23552C31.3645 0.613315 30.7492 0.179083 30.0407 0.0442349C29.3319 -0.0910819 28.6003 0.0870487 28.033 0.53175L24.5758 3.23996C24.0082 3.68466 23.6605 4.35265 23.6219 5.07267C23.5832 5.7927 23.8574 6.49412 24.3741 6.99711L30.961 13.4065ZM26.0214 5.08517L29.4787 2.37681C29.5068 2.35478 29.5379 2.34368 29.5715 2.34368C29.5816 2.34368 29.5919 2.34462 29.6026 2.34681C29.6482 2.35556 29.6833 2.38025 29.7069 2.4204L34.3529 10.35C34.3919 10.4164 34.3755 10.5024 34.3149 10.5499L32.7986 11.7376C32.7383 11.7852 32.6508 11.7805 32.5956 11.7268L26.0089 5.31737C25.9756 5.28487 25.9599 5.24487 25.9623 5.19846C25.9648 5.15189 25.9846 5.11392 26.0214 5.08517Z" fill="#EF33B4"/>
</g>
<defs>
<clipPath id="clip0">
<rect width="80" height="80" fill="white"/>
</clipPath>
</defs>
</svg>
