<svg width="62" height="80" viewBox="0 0 62 80" fill="none" xmlns="http://www.w3.org/2000/svg">
<path d="M48.856 61.1577H13.1438C12.4966 61.1577 11.9719 61.6823 11.9719 62.3295C11.9719 62.9767 12.4966 63.5014 13.1438 63.5014H48.8561C49.5033 63.5014 50.028 62.9767 50.028 62.3295C50.028 61.6823 49.5032 61.1577 48.856 61.1577Z" fill="#EF33B4"/>
<path d="M48.856 66.5217H13.1438C12.4966 66.5217 11.9719 67.0464 11.9719 67.6936C11.9719 68.3408 12.4966 68.8655 13.1438 68.8655H48.8561C49.5033 68.8655 50.028 68.3408 50.028 67.6936C50.028 67.0464 49.5032 66.5217 48.856 66.5217Z" fill="#EF33B4"/>
<path d="M13.1438 26.0734C12.4966 26.0734 11.9719 26.5981 11.9719 27.2453V55.5242C11.9719 56.1714 12.4966 56.6961 13.1438 56.6961H48.8561C49.4778 56.6961 49.9864 56.2117 50.0255 55.5998C50.0328 55.5756 50.0369 55.5505 50.0369 55.5242V31.3683C50.0369 30.1811 49.071 29.2153 47.8838 29.2153H44.215C43.0278 29.2153 42.0621 30.1811 42.0621 31.3683V36.5731C42.0621 37.2203 42.5868 37.745 43.2339 37.745C43.8811 37.745 44.4058 37.2203 44.4058 36.5731V31.5591H47.6933V54.3523H44.4058V42.0256C44.4058 41.3784 43.8811 40.8537 43.2339 40.8537C42.5868 40.8537 42.0621 41.3784 42.0621 42.0256V54.3523H37.4327V40.1526C37.4327 38.9655 36.4668 37.9997 35.2796 37.9997H31.6108C30.4236 37.9997 29.4577 38.9655 29.4577 40.1526V54.3523H25.1446V48.277C25.1446 47.0898 24.1786 46.1239 22.9915 46.1239H19.3227C18.1355 46.1239 17.1696 47.0898 17.1696 48.277V54.3523H14.3157V27.2453C14.3157 26.5981 13.791 26.0734 13.1438 26.0734ZM31.8014 40.3433H35.0889V54.3523H31.8014V40.3433ZM19.5132 48.4676H22.8007V54.3523H19.5132V48.4676Z" fill="#EF33B4"/>
<path d="M20.8667 11.0394H41.1329C43.0591 11.0394 44.6263 9.47219 44.6263 7.54594V3.49344C44.6263 1.56719 43.0593 0 41.133 0H20.8667C18.9405 0 17.3733 1.56719 17.3733 3.49344V7.54594C17.3734 9.47219 18.9405 11.0394 20.8667 11.0394ZM19.7172 3.49344C19.7172 2.85953 20.233 2.34375 20.8669 2.34375H41.133C41.7669 2.34375 42.2827 2.85953 42.2827 3.49344V7.54594C42.2827 8.18 41.7669 8.69563 41.133 8.69563H20.8667C20.2328 8.69563 19.717 8.17984 19.717 7.54594V3.49344H19.7172Z" fill="#EF33B4"/>
<path d="M55.9298 4.34784H48.9072C48.26 4.34784 47.7353 4.87253 47.7353 5.51971C47.7353 6.1669 48.26 6.69159 48.9072 6.69159H55.9298C57.4368 6.69159 58.6628 7.91768 58.6628 9.42456V74.9233C58.6628 76.4303 57.4367 77.6563 55.9298 77.6563H6.07013C4.5631 77.6563 3.33716 76.4302 3.33716 74.9233V9.42456C3.33716 7.91753 4.56325 6.69159 6.07013 6.69159H13.0928C13.74 6.69159 14.2647 6.1669 14.2647 5.51971C14.2647 4.87253 13.74 4.34784 13.0928 4.34784H6.07013C3.27075 4.34784 0.993408 6.62534 0.993408 9.42456V74.9233C0.993408 77.7227 3.27091 80 6.07013 80H55.9298C58.7292 80 61.0065 77.7225 61.0065 74.9233V9.42456C61.0065 6.62518 58.729 4.34784 55.9298 4.34784Z" fill="#EF33B4"/>
</svg>
