<svg width="80" height="80" viewBox="0 0 80 80" fill="none" xmlns="http://www.w3.org/2000/svg">
<path d="M4 80H10.6667C11.798 79.9964 12.8743 79.5116 13.6267 78.6666H47.0667C49.0232 78.6675 50.9422 78.1296 52.6133 77.112L77.6 61.9013C78.7816 61.1877 79.6135 60.0153 79.897 58.6644C80.1804 57.3135 79.8898 55.9056 79.0947 54.7773C79.0664 54.7309 79.0352 54.6864 79.0013 54.644C77.7114 52.9304 75.4729 52.2295 73.436 52.9013L64 56.0386V28H65.7467C66.8646 28.0059 67.8677 27.3139 68.2589 26.2666C68.6502 25.2194 68.3467 24.0392 67.4987 23.3106L64 20.2906V5.3333C64 3.86054 62.8061 2.66664 61.3333 2.66664H54.6667C53.1939 2.66664 52 3.86054 52 5.3333V9.93064L41.7333 1.06664C40.7338 0.217534 39.2662 0.217534 38.2667 1.06664L12.4973 23.3146C11.6519 24.0443 11.3508 25.2235 11.7427 26.2692C12.1346 27.3149 13.1366 28.0057 14.2533 28H16V46.6666H14.4213C13.8583 45.0742 12.3557 44.007 10.6667 44H4C1.79086 44 0 45.7908 0 48V76C0 78.2091 1.79086 80 4 80ZM74.2667 55.4253C75.1816 55.1249 76.1871 55.416 76.8 56.1586C76.8201 56.1918 76.8419 56.2238 76.8653 56.2546C77.2583 56.7772 77.4114 57.4418 77.2866 58.0835C77.1618 58.7253 76.7708 59.2841 76.2107 59.6213L51.2267 74.8346C49.9731 75.5972 48.534 76.0004 47.0667 76H14.6667V49.3333H17.0667C19.5268 49.3361 21.9133 50.1732 23.836 51.708C26.2311 53.6187 29.2028 54.6616 32.2667 54.6666H39.24C41.0993 54.6716 42.8232 55.64 43.7947 57.2253C43.8093 57.2586 43.8253 57.2893 43.8387 57.3133C44.6763 58.5336 44.6387 60.1532 43.7453 61.3333H35.6267C32.9941 61.335 30.4206 62.1143 28.2293 63.5733L27.256 64.2266C26.6448 64.6375 26.4824 65.4661 26.8933 66.0773C27.3042 66.6885 28.1328 66.8509 28.744 66.44L29.7093 65.792C31.462 64.6243 33.5207 64.0008 35.6267 64H47.48C48.1992 64.0009 48.9137 63.8833 49.5947 63.652L74.2667 55.4253ZM49.3333 60.9333L48.7413 61.1306C48.3348 61.2669 47.9087 61.3354 47.48 61.3333H46.7533C47.3414 59.5631 47.1302 57.6246 46.1747 56.0226C46.1535 55.9767 46.1294 55.9322 46.1027 55.8893C44.6529 53.4831 42.0519 52.0085 39.2427 52H32.2667C31.7308 51.9956 31.1959 51.951 30.6667 51.8666V49.3333C30.6667 44.1786 34.8453 40 40 40C45.1547 40 49.3333 44.1786 49.3333 49.3333V60.9333ZM54.6667 5.3333H61.3333V17.9893L54.6667 12.2333V5.3333ZM21.3333 28C22.0697 28 22.6667 27.403 22.6667 26.6666C22.6667 25.9303 22.0697 25.3333 21.3333 25.3333H14.244L40 3.0893L52.4 13.796L65.7467 25.3333H48C47.2636 25.3333 46.6667 25.9303 46.6667 26.6666C46.6667 27.403 47.2636 28 48 28H61.3333V56.9333L52 60.044V49.3333C52 42.7059 46.6274 37.3333 40 37.3333C33.3726 37.3333 28 42.7059 28 49.3333V51.1146C27.103 50.7337 26.262 50.2327 25.5 49.6253C23.5309 48.0594 21.1648 47.0724 18.6667 46.7746V28H21.3333ZM2.66667 48C2.66667 47.2636 3.26362 46.6666 4 46.6666H10.6667C11.403 46.6666 12 47.2636 12 48V76C12 76.7364 11.403 77.3333 10.6667 77.3333H4C3.26362 77.3333 2.66667 76.7364 2.66667 76V48Z" fill="#EF33B4"/>
<path d="M16.0001 6.66665C16.7365 6.66665 17.3334 6.06969 17.3334 5.33331V2.66665C17.3334 1.93027 16.7365 1.33331 16.0001 1.33331C15.2637 1.33331 14.6667 1.93027 14.6667 2.66665V5.33331C14.6667 6.06969 15.2637 6.66665 16.0001 6.66665Z" fill="#EF33B4"/>
<path d="M16.0001 9.33331C15.2637 9.33331 14.6667 9.93027 14.6667 10.6666V13.3333C14.6667 14.0697 15.2637 14.6666 16.0001 14.6666C16.7365 14.6666 17.3334 14.0697 17.3334 13.3333V10.6666C17.3334 9.93027 16.7365 9.33331 16.0001 9.33331Z" fill="#EF33B4"/>
<path d="M18.6666 9.33329H21.3333C22.0696 9.33329 22.6666 8.73634 22.6666 7.99996C22.6666 7.26358 22.0696 6.66663 21.3333 6.66663H18.6666C17.9302 6.66663 17.3333 7.26358 17.3333 7.99996C17.3333 8.73634 17.9302 9.33329 18.6666 9.33329Z" fill="#EF33B4"/>
<path d="M10.6666 9.33329H13.3333C14.0696 9.33329 14.6666 8.73634 14.6666 7.99996C14.6666 7.26358 14.0696 6.66663 13.3333 6.66663H10.6666C9.93021 6.66663 9.33325 7.26358 9.33325 7.99996C9.33325 8.73634 9.93021 9.33329 10.6666 9.33329Z" fill="#EF33B4"/>
<path d="M74.0001 39.3333C74.3537 39.3332 74.6928 39.1927 74.9427 38.9426L76.9427 36.9426C77.448 36.4194 77.4408 35.5878 76.9265 35.0735C76.4122 34.5592 75.5806 34.552 75.0574 35.0573L73.0574 37.0573C72.6762 37.4386 72.5622 38.012 72.7685 38.5101C72.9748 39.0083 73.4609 39.3332 74.0001 39.3333Z" fill="#EF33B4"/>
<path d="M69.0575 41.0573L67.0575 43.0573C66.7109 43.3921 66.5719 43.8878 66.6939 44.354C66.8159 44.8202 67.18 45.1842 67.6461 45.3063C68.1123 45.4283 68.608 45.2893 68.9428 44.9427L70.9428 42.9427C71.4481 42.4195 71.4409 41.5879 70.9266 41.0736C70.4123 40.5593 69.5806 40.552 69.0575 41.0573Z" fill="#EF33B4"/>
<path d="M75.0574 44.9427C75.5806 45.448 76.4122 45.4407 76.9265 44.9264C77.4408 44.4121 77.448 43.5805 76.9427 43.0573L74.9427 41.0573C74.4196 40.552 73.5879 40.5593 73.0736 41.0736C72.5593 41.5879 72.5521 42.4195 73.0574 42.9427L75.0574 44.9427Z" fill="#EF33B4"/>
<path d="M67.0574 35.0573C66.5369 35.578 66.5369 36.422 67.0574 36.9426L69.0574 38.9426C69.5805 39.4479 70.4122 39.4407 70.9265 38.9264C71.4408 38.4121 71.448 37.5805 70.9427 37.0573L68.9427 35.0573C68.422 34.5368 67.578 34.5368 67.0574 35.0573Z" fill="#EF33B4"/>
<path d="M26.6666 28C30.3467 28.0044 33.3288 30.9866 33.3333 34.6666C33.3333 35.403 33.9302 36 34.6666 36C35.403 36 35.9999 35.403 35.9999 34.6666C36.0043 30.9866 38.9865 28.0044 42.6666 28C43.403 28 43.9999 27.403 43.9999 26.6666C43.9999 25.9303 43.403 25.3333 42.6666 25.3333C38.9865 25.3289 36.0043 22.3467 35.9999 18.6666C35.9999 17.9303 35.403 17.3333 34.6666 17.3333C33.9302 17.3333 33.3333 17.9303 33.3333 18.6666C33.3288 22.3467 30.3467 25.3289 26.6666 25.3333C25.9302 25.3333 25.3333 25.9303 25.3333 26.6666C25.3333 27.403 25.9302 28 26.6666 28ZM34.6666 23.4666C35.4574 24.7775 36.5558 25.8758 37.8666 26.6666C36.5558 27.4575 35.4574 28.5558 34.6666 29.8666C33.8757 28.5558 32.7774 27.4575 31.4666 26.6666C32.7774 25.8758 33.8757 24.7775 34.6666 23.4666Z" fill="#EF33B4"/>
</svg>
