<svg width="80" height="80" viewBox="0 0 80 80" fill="none" xmlns="http://www.w3.org/2000/svg">
<path d="M39.9997 12.1317C19.3222 12.1317 2.49976 28.9541 2.49976 49.6316C2.49976 50.3219 3.05951 50.8817 3.74982 50.8817H76.2498C76.9407 50.8817 77.4999 50.3219 77.4999 49.6316C77.4997 28.9541 60.6773 12.1317 39.9997 12.1317ZM5.02167 48.3816C5.68231 29.659 21.1192 14.6316 39.9997 14.6316C58.8803 14.6316 74.3175 29.659 74.9778 48.3816H5.02167Z" fill="#EF33B4"/>
<path d="M75.6249 48.3815H4.37494C1.96289 48.3815 0 50.3442 0 52.7565C0 55.1687 1.96289 57.1314 4.37494 57.1314H75.6249C78.0371 57.1314 79.9998 55.1685 79.9998 52.7565C79.9998 50.3444 78.0371 48.3815 75.6249 48.3815ZM75.6249 54.6315H4.37494C3.34094 54.6315 2.49994 53.7905 2.49994 52.7565C2.49994 51.7225 3.34094 50.8815 4.37494 50.8815H75.6249C76.6589 50.8815 77.4999 51.7225 77.4999 52.7565C77.4999 53.7905 76.6591 54.6315 75.6249 54.6315Z" fill="#EF33B4"/>
<path d="M23.1238 60.0441C21.8238 57.8803 19.0047 57.1772 16.8385 58.4773C15.7886 59.1079 15.047 60.1069 14.7498 61.2897C14.4527 62.4763 14.6371 63.7097 15.2704 64.7633L17.0617 67.7442L19.2039 66.4564L17.4126 63.4755C17.1244 62.9957 17.0394 62.4354 17.1745 61.8982C17.3095 61.3617 17.6469 60.9076 18.1254 60.6207C19.1076 60.0304 20.3904 60.3484 20.9807 61.3317L24.8382 67.7519L26.982 66.4645L23.1238 60.0441Z" fill="#EF33B4"/>
<path d="M46.1318 64.6866L46.4125 64.8415L60.6775 64.8739L60.6824 62.3739L47.0579 62.3428C41.2619 59.1597 28.1964 52.5923 25.2514 56.2434C24.6 57.0509 24.3741 58.0061 24.5995 59.0059C25.1563 61.4802 28.5414 63.8058 30.8423 65.1302L29.0691 66.2464L16.9329 66.4662L11.6014 63.6526C9.45742 62.5204 6.80697 63.2603 5.54977 65.2866L5.54135 65.2822C5.5408 65.284 5.53952 65.286 5.53823 65.2879L5.40109 65.5448L5.40951 65.5492C4.42202 67.7232 5.28537 70.3348 7.42349 71.4867L15.5497 75.8585L29.9612 77.7636C30.7956 78.1818 33.325 79.1185 39.2247 79.1185C43.89 79.1185 50.6625 78.5326 60.37 76.641L59.8916 74.1872C36.8666 78.6753 31.0653 75.5227 31.0373 75.5062L30.8004 75.3524L16.3314 73.4403L8.60854 69.2849C7.63662 68.7621 7.24075 67.5809 7.68075 66.5952C8.25662 65.6803 9.45852 65.349 10.4345 65.8634L16.3349 68.9774L29.8114 68.7334L35.9101 64.8936L33.8769 63.9128C31.2634 62.6524 27.4138 60.1261 27.0385 58.4575C26.9819 58.2059 27.0262 58.0254 27.1972 57.8135C27.7839 57.0796 34.0704 58.0254 46.1318 64.6866Z" fill="#EF33B4"/>
<path d="M71.322 58.3815H60.0782C59.3873 58.3815 58.8281 58.9412 58.8281 59.6315V77.1315C58.8281 77.8218 59.3871 78.3815 60.0782 78.3815H71.322C72.0128 78.3815 72.572 77.8218 72.572 77.1315V59.6315C72.5718 58.9412 72.0128 58.3815 71.322 58.3815ZM70.0719 75.8816H61.3281V60.8816H70.0719V75.8816Z" fill="#EF33B4"/>
<path d="M36.233 19.8396C36.1189 19.1596 35.4817 18.7031 34.7933 18.8137C25.7142 20.3366 17.8051 25.7732 13.0938 33.7284C12.7417 34.3227 12.9382 35.0894 13.532 35.4409C13.7319 35.5594 13.9513 35.6156 14.1679 35.6156C14.5951 35.6156 15.0113 35.3966 15.2448 35.0024C19.5801 27.6819 26.856 22.68 35.2069 21.2792C35.8877 21.1653 36.3465 20.521 36.233 19.8396Z" fill="#EF33B4"/>
<path d="M40 0.881653C35.8644 0.881653 32.5 4.24603 32.5 8.38165C32.5 10.5672 33.4509 12.6394 35.1087 14.0676C35.6313 14.5192 36.4199 14.4602 36.8715 13.9358C37.3217 13.4126 37.2633 12.6233 36.7396 12.173C35.6344 11.2209 35.0003 9.83898 35.0003 8.38201C35.0003 5.62518 37.2428 3.38196 40.0004 3.38196C42.7579 3.38196 45.0004 5.625 45.0004 8.38201C45.0004 9.84393 44.3632 11.2286 43.251 12.182C42.7261 12.6313 42.6651 13.4205 43.1153 13.9448C43.362 14.2326 43.7123 14.3811 44.0638 14.3811C44.352 14.3811 44.6413 14.282 44.8766 14.0799C46.5442 12.6511 47.5002 10.5743 47.5002 8.38183C47.5 4.24603 44.1356 0.881653 40 0.881653Z" fill="#EF33B4"/>
</svg>
