<svg width="170" height="45" viewBox="0 0 170 45" fill="none" xmlns="http://www.w3.org/2000/svg">
<g clip-path="url(#clip0)">
<path d="M37.7574 17.5385L21.0323 0.738462C20.5283 0.230769 19.8868 0 19.1995 0C18.558 0 17.9164 0.276923 17.4124 0.738462L0.733154 17.5385C0.229111 18.0462 0 18.6462 0 19.2923V42.4154C0 43.8462 1.14555 45 2.56604 45H35.9704C37.3908 45 38.5364 43.8462 38.5364 42.4154V19.2923C38.5364 18.6 38.2615 17.9538 37.7574 17.5385Z" fill="#EF33B4"/>
<path d="M14.938 20.5846C12.1886 20.5846 9.94336 22.8461 9.94336 25.6154C9.94336 27 10.4932 28.2923 11.4097 29.1692L19.2452 37.2L27.1266 29.2615C28.0431 28.3384 28.593 27.0923 28.593 25.7077C28.593 22.9384 26.3935 20.6769 23.5983 20.6769C21.7196 20.6769 20.1159 21.6923 19.2452 23.2154C18.4204 21.6461 16.8167 20.5846 14.938 20.5846Z" fill="white"/>
<path d="M49.2587 19.1538C49.9461 18 51.504 16.8461 53.7951 16.8461C57.0943 16.8461 59.5687 19.2461 59.5687 22.9846V32.0308H57.0485V23.3077C57.0485 20.8615 55.5822 19.2 53.3369 19.2C50.9542 19.2 49.3504 21.0461 49.3504 23.3538V32.0769H46.7385V9.41537H49.2587V19.1538Z" fill="#333740"/>
<path d="M76.7063 24.5539C76.7063 29.3077 73.4071 32.3077 69.1456 32.3077C64.8842 32.3077 61.585 29.3077 61.585 24.5539C61.585 19.8 64.8842 16.8462 69.1456 16.8462C73.4071 16.8462 76.7063 19.8462 76.7063 24.5539ZM64.0594 24.5539C64.0594 28.0154 66.3046 30.1385 69.1456 30.1385C71.9866 30.1385 74.2319 28.1077 74.2319 24.5539C74.2319 21.0923 71.9866 19.0154 69.1456 19.0154C66.3046 19.0154 64.0594 21.0923 64.0594 24.5539Z" fill="#333740"/>
<path d="M101.358 22.9385V31.9846H98.8383V23.2615C98.8383 20.8154 97.4636 19.1538 95.2641 19.1538C93.1105 19.1538 91.7358 20.7231 91.5526 22.7538V22.9385V31.9846H89.0323V23.3077C89.0323 20.8615 87.6119 19.2 85.504 19.2C83.1213 19.2 81.655 21.0462 81.655 23.3538V32.0769H79.1348V17.1692H81.5175V19.4308C82.2048 18.0462 83.6712 16.8923 86.0539 16.8923C88.2075 16.8923 89.9946 18 90.911 19.8C91.7817 18.0923 93.4771 16.8923 95.8598 16.8923C99.1132 16.8462 101.358 19.2923 101.358 22.9385Z" fill="#333740"/>
<path d="M106.216 25.5231C106.353 28.3846 108.232 30.0923 110.889 30.0923C113.043 30.0923 114.555 29.0769 115.013 27.4154L117.534 27.5538C116.938 30.2308 114.372 32.2615 110.981 32.2615C106.72 32.2615 103.604 29.4 103.604 24.5077C103.604 19.6615 106.628 16.8 110.889 16.8C115.151 16.8 117.671 19.6615 117.671 24.0923V25.4769H106.216V25.5231ZM106.216 23.4461H115.151C115.105 20.8615 113.685 19.0154 110.798 19.0154C108.323 19.0154 106.399 20.5846 106.216 23.4461Z" fill="#333740"/>
<path d="M129.493 17.1231H132.609L126.377 23.5846L133.342 32.0308H130.181L124.636 25.4308L123.032 27V31.9846H120.512V9.27692H123.032V23.6769L129.493 17.1231Z" fill="#EF33B4"/>
<path d="M137.558 11.7231C137.558 12.6 136.825 13.3384 135.954 13.3384C134.992 13.3384 134.35 12.6 134.35 11.7231C134.35 10.7538 135.083 10.1077 135.954 10.1077C136.779 10.0154 137.558 10.8 137.558 11.7231ZM134.625 32.0308V17.1231H137.145V32.0308H134.625Z" fill="#EF33B4"/>
<path d="M153.092 22.9385V31.9846H150.571V23.2615C150.571 20.8154 149.105 19.1538 146.86 19.1538C144.477 19.1538 142.873 21 142.873 23.3077V32.0308H140.353V17.1231H142.736V19.3846C143.469 18 144.981 16.9385 147.318 16.9385C150.663 16.8461 153.092 19.2461 153.092 22.9385Z" fill="#EF33B4"/>
<path d="M167.572 32.0308V29.5846C166.747 31.1538 164.868 32.3077 162.302 32.3077C158.224 32.3077 155.108 29.4 155.108 24.6C155.108 19.7538 158.132 16.8461 162.302 16.8461C164.731 16.8461 166.655 17.9538 167.434 19.3846V9.27692H169.954V31.9846H167.572V32.0308ZM157.72 24.5538C157.72 28.1538 159.873 30.1385 162.669 30.1385C165.372 30.1385 167.388 28.4308 167.388 25.0154V24.1385C167.388 20.8154 165.372 19.0154 162.669 19.0154C159.873 19.0154 157.72 21 157.72 24.5538Z" fill="#EF33B4"/>
<path d="M48.2507 38.5384C48.5714 38.0769 49.2129 37.6615 50.1752 37.6615C51.7331 37.6615 52.8329 38.7692 52.8329 40.5692V44.7692H51.4124V40.8C51.4124 39.7846 50.8167 39.1385 49.9003 39.1385C48.938 39.1385 48.3423 39.8769 48.3423 40.8461V44.7692H46.7385V34.2923H48.2507V38.5384Z" fill="#EF33B4"/>
<path d="M61.6764 41.2154C61.6764 43.4308 60.1185 44.7692 58.0565 44.7692C55.9945 44.7692 54.4365 43.3385 54.4365 41.2154C54.4365 39 55.9945 37.6615 58.0565 37.6615C60.1185 37.5692 61.6764 39 61.6764 41.2154ZM56.0403 41.2154C56.0403 42.6461 56.9109 43.4769 58.1023 43.4769C59.2937 43.4769 60.1643 42.6461 60.1643 41.2154C60.1643 39.7846 59.2937 38.8615 58.1023 38.8615C56.8193 38.8615 56.0403 39.7846 56.0403 41.2154Z" fill="#EF33B4"/>
<path d="M73.8193 40.4769V44.6769H72.2613V40.7077C72.2613 39.6923 71.7114 39.0461 70.8408 39.0461C69.9702 39.0461 69.4203 39.6461 69.3287 40.4769V40.5231V44.7231H67.8166V40.7538C67.8166 39.7384 67.2667 39.0923 66.4419 39.0923C65.4796 39.0923 64.884 39.8308 64.884 40.8V44.7692H63.3718V37.7077H64.7923V38.5846C65.1131 37.9846 65.7546 37.5692 66.7627 37.5692C67.7249 37.5692 68.5497 38.0308 68.9621 38.8154C69.3745 38.1231 70.1077 37.5692 71.2074 37.5692C72.8112 37.5692 73.8193 38.7231 73.8193 40.4769Z" fill="#EF33B4"/>
<path d="M77.027 41.7692C77.0729 42.7846 77.8518 43.4769 78.8599 43.4769C79.7305 43.4769 80.2804 43.1538 80.5095 42.5077L82.0216 42.5538C81.7467 43.8 80.5095 44.7692 78.8599 44.7692C76.7979 44.7692 75.3774 43.3846 75.3774 41.2154C75.3774 38.9538 76.7979 37.6615 78.8599 37.6615C80.8303 37.6615 82.0675 38.9538 82.0675 41.0769V41.8154H77.027V41.7692ZM77.1187 40.6154H80.647C80.6012 39.6 80.0513 38.9538 78.9516 38.9538C77.8518 38.8615 77.1645 39.5077 77.1187 40.6154Z" fill="#EF33B4"/>
<path d="M93.202 40.2461L91.6899 40.3846C91.5524 39.5077 90.9567 38.9538 89.9944 38.9538C88.8947 38.9538 88.0699 39.7846 88.0699 41.3077C88.0699 42.7384 88.8947 43.5692 89.9944 43.5692C90.9567 43.5692 91.5524 43.0154 91.6899 42.1846L93.202 42.3231C92.9271 43.8923 91.6899 44.8615 89.9944 44.8615C88.0241 44.8615 86.512 43.5692 86.512 41.3077C86.512 39.0461 88.0241 37.7538 89.9944 37.7538C91.7357 37.5692 93.0187 38.5846 93.202 40.2461Z" fill="#EF33B4"/>
<path d="M100.167 40.3384V44.6769H98.6549V44.0769C98.1967 44.5384 97.5552 44.8154 96.822 44.8154C95.4474 44.8154 94.4851 44.0769 94.4851 42.7384C94.4851 41.2154 95.5848 40.7538 97.0053 40.6154L98.6549 40.5692V40.3846C98.6549 39.5077 98.2425 38.9538 97.4177 38.9538C96.5471 38.9538 96.1805 39.5077 96.1805 40.1077L94.6684 40.0615C94.6684 38.8154 95.6765 37.5692 97.4177 37.5692C99.159 37.5692 100.167 38.5846 100.167 40.3384ZM97.2344 41.8154C96.5471 41.8615 95.9972 42.0923 95.9972 42.6923C95.9972 43.2461 96.4096 43.4308 97.0053 43.4308C97.9676 43.4308 98.6549 42.9692 98.6549 41.9077V41.6308L97.2344 41.8154Z" fill="#EF33B4"/>
<path d="M105.666 39.1385C104.52 39.1385 103.741 39.8769 103.741 40.9385V44.7231H102.229V37.7077H103.649V38.6769C103.924 38.1231 104.52 37.6615 105.62 37.6615V39.1385H105.666Z" fill="#EF33B4"/>
<path d="M108.094 41.7692C108.14 42.7846 108.919 43.4769 109.927 43.4769C110.798 43.4769 111.348 43.1538 111.577 42.5077L113.089 42.5538C112.814 43.8 111.577 44.7692 109.927 44.7692C107.865 44.7692 106.445 43.3846 106.445 41.2154C106.445 38.9538 107.865 37.6615 109.927 37.6615C111.898 37.6615 113.135 38.9538 113.135 41.0769V41.8154H108.094V41.7692ZM108.186 40.6154H111.714C111.669 39.6 111.119 38.9538 110.019 38.9538C109.011 38.8615 108.232 39.5077 108.186 40.6154Z" fill="#EF33B4"/>
<path d="M122.986 39.8308L121.474 39.8769C121.428 39.3231 121.062 38.9077 120.329 38.9077C119.641 38.9077 119.229 39.1846 119.229 39.6462C119.229 40.2462 119.825 40.2462 120.741 40.5231C122.162 40.8462 123.124 41.3538 123.124 42.6C123.124 43.9846 122.116 44.8154 120.374 44.8154C118.725 44.8154 117.717 43.9846 117.579 42.6L119.091 42.5538C119.137 43.1538 119.641 43.5692 120.466 43.5692C121.153 43.5692 121.612 43.2923 121.612 42.8308C121.612 42.2769 121.291 42.1385 120.1 41.8615C118.679 41.5385 117.717 41.2615 117.717 39.7846C117.717 38.5385 118.679 37.6615 120.329 37.6615C121.978 37.5692 122.849 38.5846 122.986 39.8308Z" fill="#EF33B4"/>
<path d="M126.011 41.7692C126.057 42.7846 126.836 43.4769 127.844 43.4769C128.714 43.4769 129.264 43.1538 129.493 42.5077L131.006 42.5538C130.731 43.8 129.493 44.7692 127.844 44.7692C125.782 44.7692 124.361 43.3846 124.361 41.2154C124.361 38.9538 125.782 37.6615 127.844 37.6615C129.814 37.6615 131.051 38.9538 131.051 41.0769V41.8154H126.011V41.7692ZM126.011 40.6154H129.539C129.493 39.6 128.944 38.9538 127.844 38.9538C126.79 38.8615 126.057 39.5077 126.011 40.6154Z" fill="#EF33B4"/>
<path d="M136.229 39.1385C135.084 39.1385 134.305 39.8769 134.305 40.9385V44.7231H132.792V37.7077H134.305V38.6769C134.58 38.1231 135.175 37.6615 136.275 37.6615V39.1846H136.229V39.1385Z" fill="#EF33B4"/>
<path d="M140.032 44.6769L137.008 37.7538H138.658L140.582 42.4154L142.507 37.7538H144.156L141.132 44.6769H140.032Z" fill="#EF33B4"/>
<path d="M147.135 35.3077C147.135 35.8615 146.722 36.2769 146.172 36.2769C145.623 36.2769 145.21 35.8615 145.21 35.3077C145.21 34.7538 145.623 34.3384 146.172 34.3384C146.722 34.3384 147.135 34.7538 147.135 35.3077ZM145.439 44.6769V37.7538H146.951V44.6769H145.439Z" fill="#EF33B4"/>
<path d="M155.291 40.2461L153.779 40.3846C153.642 39.5077 153.046 38.9538 152.084 38.9538C150.984 38.9538 150.159 39.7846 150.159 41.3077C150.159 42.7384 150.984 43.5692 152.084 43.5692C153.046 43.5692 153.642 43.0154 153.779 42.1846L155.291 42.3231C155.016 43.8923 153.779 44.8615 152.084 44.8615C150.113 44.8615 148.601 43.5692 148.601 41.3077C148.601 39.0461 150.113 37.7538 152.084 37.7538C153.779 37.5692 155.062 38.5846 155.291 40.2461Z" fill="#EF33B4"/>
<path d="M158.086 41.7692C158.132 42.7846 158.911 43.4769 159.919 43.4769C160.79 43.4769 161.34 43.1538 161.569 42.5077L163.081 42.5538C162.806 43.8 161.569 44.7692 159.919 44.7692C157.857 44.7692 156.437 43.3846 156.437 41.2154C156.437 38.9538 157.857 37.6615 159.919 37.6615C161.89 37.6615 163.127 38.9538 163.127 41.0769V41.8154H158.086V41.7692ZM158.132 40.6154H161.66C161.615 39.6 161.065 38.9538 159.965 38.9538C158.911 38.8615 158.224 39.5077 158.132 40.6154Z" fill="#EF33B4"/>
<path d="M169.863 39.8308L168.35 39.8769C168.305 39.3231 167.938 38.9077 167.205 38.9077C166.518 38.9077 166.105 39.1846 166.105 39.6462C166.105 40.2462 166.701 40.2462 167.617 40.5231C169.038 40.8462 170 41.3538 170 42.6C170 43.9846 168.992 44.8154 167.251 44.8154C165.601 44.8154 164.593 43.9846 164.456 42.6L165.968 42.5538C166.014 43.1538 166.518 43.5692 167.342 43.5692C168.03 43.5692 168.488 43.2923 168.488 42.8308C168.488 42.2769 168.167 42.1385 166.976 41.8615C165.555 41.5385 164.593 41.2615 164.593 39.7846C164.593 38.5385 165.555 37.6615 167.205 37.6615C168.854 37.5692 169.725 38.5846 169.863 39.8308Z" fill="#EF33B4"/>
</g>
<defs>
<clipPath id="clip0">
<rect width="170" height="45" fill="white"/>
</clipPath>
</defs>
</svg>
